<?xml version="1.0" encoding="utf-8"?>
<!-- Generator: Adobe Illustrator 22.1.0, SVG Export Plug-In . SVG Version: 6.00 Build 0)  -->
<svg version="1.1" id="Livello_1" xmlns="http://www.w3.org/2000/svg" xmlns:xlink="http://www.w3.org/1999/xlink" x="0px" y="0px"
	 viewBox="0 0 410 97.2" style="enable-background:new 0 0 410 97.2;" xml:space="preserve">
<style type="text/css">
	.st0{fill:#D3D800;}
</style>
<polygon class="st0" points="291,71.1 291,32.2 282.2,32.2 282.2,27.2 291,27.2 291,3 296.7,5.6 296.8,27.2 305.5,27.2 305.5,32.2 
	296.8,32.2 296.8,71.1 "/>
<path class="st0" d="M253.2,26.2c-6.8,0-12.8,3-17,7.7l0-28.3L230.5,3l0,13.3l0,0v30.4c-0.1,0.8-0.1,1.6-0.1,2.4
	c0,12.6,10.2,22.8,22.8,22.8c12.6,0,22.8-10.2,22.8-22.8C276,36.4,265.8,26.2,253.2,26.2z M253.3,66.4c-9.4,0-17.1-7.6-17.1-17.1
	c0-9.4,7.6-17.1,17.1-17.1c9.4,0,17.1,7.6,17.1,17.1C270.4,58.8,262.7,66.4,253.3,66.4z"/>
<path class="st0" d="M199.1,32.3c7.8,0,14.4,5.3,16.4,12.4h-32.9C184.7,37.6,191.2,32.3,199.1,32.3z M213.3,58.8
	c-3.1,4.5-8.4,7.6-14.2,7.6c-9.3,0-16.9-7.4-17.1-16.7l39.9-0.1c0-0.2,0-0.4,0-0.6c0-12.6-10.2-22.8-22.8-22.8
	c-12.6,0-22.8,10.2-22.8,22.8s10.2,22.8,22.8,22.8c8.2,0,15.3-4.3,19.4-10.7L213.3,58.8z"/>
<path class="st0" d="M333,32.4c7.8,0,14.4,5.3,16.4,12.4h-32.9C318.6,37.6,325.2,32.4,333,32.4z M347.2,58.9
	c-3.1,4.5-8.4,7.6-14.2,7.6c-9.3,0-16.9-7.4-17.1-16.7l39.9-0.1c0-0.2,0-0.4,0-0.6c0-12.6-10.2-22.8-22.8-22.8
	c-12.6,0-22.8,10.2-22.8,22.8S320.3,72,332.9,72c8.2,0,15.3-4.3,19.4-10.7L347.2,58.9z"/>
<polygon class="st0" points="405.4,27.2 396.5,27.2 372.8,43.1 372.8,5.6 367.1,3 367.1,71.1 372.8,71.1 372.8,49.9 372.8,49.9 
	372.8,49.9 373.7,49.3 398.1,71.1 406,71.1 378.2,46.1 "/>
<g>
	<path class="st0" d="M95.6,52.6c0.1-1.1,0.1-2.3,0.1-3.4c0-19.6-12.2-36.4-29.5-43.1L95.6,52.6z"/>
	<g>
		<path class="st0" d="M9.4,72.1c8,13.9,23,23.3,40.1,23.3c3.3,0,6.6-0.4,9.8-1L9.4,72.1z"/>
		<path class="st0" d="M55.1,64L27.6,34l32.2,14.3l3.7-12.5l12.3,6.5L60.4,4.3C57,3.4,53.3,3,49.5,3C24,3,3.3,23.6,3.3,49.1
			c0,6.7,1.5,13.1,4.1,18.9l0,0l44.2,8.1L55.1,64z"/>
	</g>
</g>
<path class="st0" d="M93.6,63.1L59.8,48.2L55.1,64l21.1,23C84.3,81.2,90.6,72.9,93.6,63.1z"/>
<polygon class="st0" points="137.6,30.5 123.2,59.1 110.9,30.5 103.8,27.2 122.6,71.1 123.8,71.1 138.2,40.4 152.3,71.1 153.5,71.1 
	172.6,27.2 165.4,30.5 152.8,59.1 138.8,30.5 "/>
</svg>
